<?xml version="1.0" encoding="utf-8"?>
<svg id="master-artboard" viewBox="0 0 244.06765747070312 326.8742370605469" version="1.1" xmlns="http://www.w3.org/2000/svg" x="0px" y="0px" style="enable-background:new 0 0 1400 980;" width="244.06765747070312px" height="326.8742370605469px">
    <!-- Commented out the following rect element to remove the white background -->
    <!-- <rect id="ee-background" x="0" y="0" width="244.06765747070312" height="326.8742370605469" style="fill: white; fill-opacity: 0; pointer-events: none;"/> -->

    <path d="M 342.3999938964844 648.0999755859375 L 331.1000061035156 639 L 323 702.4000244140625 L 316.70001220703125 627.2999877929688 L 295.79998779296875 610.5 L 312.79998779296875 822.5999755859375 L 358.5 811 Z" transform="matrix(1, 0, 0, 1, -120.23045349121094, -522.8626708984375)"/>
    <path d="M 139.60000610351562 648.0999755859375 L 150.89999389648438 639 L 159 702.4000244140625 L 165.3000030517578 627.2999877929688 L 186.1999969482422 610.5 L 169.1999969482422 822.5999755859375 L 123.5 811 Z" transform="matrix(1, 0, 0, 1, -120.23045349121094, -522.8626708984375)"/>
    <g transform="matrix(1, 0, 0, 1, -120.23045349121094, -522.8626708984375)">
        <path d="M 236.3000030517578 537.0999755859375 L 236.3000030517578 842.2999877929688 L 179 827.0999755859375 L 197.8000030517578 570.2000122070312 Z"/>
    </g>
    <path d="M 244.8000030517578 537.0999755859375 L 244.8000030517578 842.2999877929688 L 302.1000061035156 827.0999755859375 L 283.29998779296875 570.2000122070312 Z" transform="matrix(1, 0, 0, 1, -120.23045349121094, -522.8626708984375)"/>
</svg>

